<svg width="178" height="16" viewBox="0 0 178 16" fill="none" xmlns="http://www.w3.org/2000/svg">
<path d="M7.41563 15.3C6.10896 15.3 4.96229 15.02 3.97563 14.46C3.00229 13.8867 2.24896 13.0533 1.71563 11.96C1.18229 10.8667 0.915625 9.54667 0.915625 8C0.915625 6.45333 1.18229 5.13333 1.71563 4.04C2.24896 2.94667 3.00229 2.12 3.97563 1.56C4.96229 0.986666 6.10896 0.699999 7.41563 0.699999C8.72229 0.699999 9.86229 0.986666 10.8356 1.56C11.8223 2.12 12.5823 2.94667 13.1156 4.04C13.649 5.13333 13.9156 6.45333 13.9156 8C13.9156 9.54667 13.649 10.8667 13.1156 11.96C12.5823 13.0533 11.8223 13.8867 10.8356 14.46C9.86229 15.02 8.72229 15.3 7.41563 15.3ZM7.41563 14.9C7.93563 14.9 8.41563 14.68 8.85563 14.24C9.30896 13.8 9.68229 13.0667 9.97563 12.04C10.269 11.0133 10.4156 9.66667 10.4156 8C10.4156 6.33333 10.269 4.98667 9.97563 3.96C9.68229 2.93333 9.30896 2.2 8.85563 1.76C8.41563 1.32 7.93563 1.1 7.41563 1.1C6.89563 1.1 6.40896 1.32 5.95563 1.76C5.51563 2.2 5.14896 2.93333 4.85563 3.96C4.56229 4.98667 4.41563 6.33333 4.41563 8C4.41563 9.66667 4.56229 11.0133 4.85563 12.04C5.14896 13.0667 5.51563 13.8 5.95563 14.24C6.40896 14.68 6.89563 14.9 7.41563 14.9ZM17.6203 4.4V14.1L19.2203 14.7V15H15.4203V14.7L17.0203 14.1V1.7L15.6203 1.3V0.999999H17.7203C18.427 0.999999 18.9803 1.12667 19.3803 1.38C19.7803 1.63333 20.1603 1.97333 20.5203 2.4L26.9203 9.9V1.9L25.3203 1.3V0.999999H29.1203V1.3L27.5203 1.9V15.3H26.9203L17.6203 4.4ZM30.4297 14.7L31.6297 14.4V1.6L30.4297 1.3V0.999999H36.1297V1.3L34.9297 1.6V14.5H39.2297C39.2297 13.66 39.443 12.88 39.8697 12.16C40.0564 11.8533 40.2764 11.6 40.5297 11.4H41.1297V15H30.4297V14.7ZM42.6367 15V14.7L43.8367 14.4V1.6L42.6367 1.3V0.999999H48.3367V1.3L47.1367 1.6V14.4L48.3367 14.7V15H42.6367ZM51.9367 4.4V14.1L53.5367 14.7V15H49.7367V14.7L51.3367 14.1V1.7L49.9367 1.3V0.999999H52.0367C52.7434 0.999999 53.2967 1.12667 53.6967 1.38C54.0967 1.63333 54.4767 1.97333 54.8367 2.4L61.2367 9.9V1.9L59.6367 1.3V0.999999H63.4367V1.3L61.8367 1.9V15.3H61.2367L51.9367 4.4ZM64.7461 14.7L65.9461 14.4V1.6L64.7461 1.3V0.999999H75.4461V4.6H74.8461C74.5928 4.4 74.3728 4.14667 74.1861 3.84C73.7594 3.12 73.5461 2.34 73.5461 1.5H69.2461V7.8H71.5461C71.6394 7.29333 71.8128 6.82 72.0661 6.38C72.1728 6.18 72.2994 5.98667 72.4461 5.8H73.0461V10.3H72.4461C72.2994 10.1133 72.1728 9.92 72.0661 9.72C71.8128 9.28 71.6394 8.80667 71.5461 8.3H69.2461V14.5H73.9461C73.9461 13.66 74.1594 12.88 74.5861 12.16C74.7728 11.8533 74.9928 11.6 75.2461 11.4H75.8461V15H64.7461V14.7ZM89.9422 15.3C87.8089 15.3 86.1422 14.6667 84.9422 13.4C83.7422 12.1333 83.1422 10.3333 83.1422 8C83.1422 6.46667 83.4022 5.15333 83.9222 4.06C84.4555 2.95333 85.1955 2.12 86.1422 1.56C87.1022 0.986666 88.2089 0.699999 89.4622 0.699999C90.2222 0.699999 90.9889 0.919999 91.7622 1.36C92.0555 1.52 92.3489 1.73333 92.6422 2C92.8689 1.65333 93.1022 1.38 93.3422 1.18C93.5822 1.00667 93.7155 0.913332 93.7422 0.899999H94.2422V4.7H93.4422C93.2689 4.06 93.0089 3.48 92.6622 2.96C92.3422 2.45333 91.9422 2.03333 91.4622 1.7C90.9955 1.36667 90.4555 1.2 89.8422 1.2C88.9222 1.2 88.1555 1.73333 87.5422 2.8C86.9422 3.86667 86.6422 5.6 86.6422 8C86.6422 10.44 86.9689 12.1867 87.6222 13.24C88.2889 14.28 89.1955 14.8 90.3422 14.8C90.9689 14.8 91.5622 14.6267 92.1222 14.28C92.6955 13.92 93.1555 13.4467 93.5022 12.86C93.8622 12.2733 94.0422 11.6533 94.0422 11H94.5422C94.5422 11.76 94.3355 12.4733 93.9222 13.14C93.5222 13.7933 92.9689 14.32 92.2622 14.72C91.5689 15.1067 90.7955 15.3 89.9422 15.3ZM102.259 15.3C100.953 15.3 99.806 15.02 98.8194 14.46C97.846 13.8867 97.0927 13.0533 96.5594 11.96C96.026 10.8667 95.7594 9.54667 95.7594 8C95.7594 6.45333 96.026 5.13333 96.5594 4.04C97.0927 2.94667 97.846 2.12 98.8194 1.56C99.806 0.986666 100.953 0.699999 102.259 0.699999C103.566 0.699999 104.706 0.986666 105.679 1.56C106.666 2.12 107.426 2.94667 107.959 4.04C108.493 5.13333 108.759 6.45333 108.759 8C108.759 9.54667 108.493 10.8667 107.959 11.96C107.426 13.0533 106.666 13.8867 105.679 14.46C104.706 15.02 103.566 15.3 102.259 15.3ZM102.259 14.9C102.779 14.9 103.259 14.68 103.699 14.24C104.153 13.8 104.526 13.0667 104.819 12.04C105.113 11.0133 105.259 9.66667 105.259 8C105.259 6.33333 105.113 4.98667 104.819 3.96C104.526 2.93333 104.153 2.2 103.699 1.76C103.259 1.32 102.779 1.1 102.259 1.1C101.739 1.1 101.253 1.32 100.799 1.76C100.359 2.2 99.9927 2.93333 99.6994 3.96C99.406 4.98667 99.2594 6.33333 99.2594 8C99.2594 9.66667 99.406 11.0133 99.6994 12.04C99.9927 13.0667 100.359 13.8 100.799 14.24C101.253 14.68 101.739 14.9 102.259 14.9ZM112.464 4.4V14.1L114.064 14.7V15H110.264V14.7L111.864 14.1V1.7L110.464 1.3V0.999999H112.564C113.271 0.999999 113.824 1.12667 114.224 1.38C114.624 1.63333 115.004 1.97333 115.364 2.4L121.764 9.9V1.9L120.164 1.3V0.999999H123.964V1.3L122.364 1.9V15.3H121.764L112.464 4.4ZM127.969 14.7L129.169 14.4V1.5H126.869C126.869 2.31333 126.649 3.09333 126.209 3.84C126.022 4.14667 125.809 4.4 125.569 4.6H124.969V0.999999H136.669V4.6H136.069C135.815 4.4 135.595 4.14667 135.409 3.84C134.982 3.12 134.769 2.34 134.769 1.5H132.469V14.4L133.669 14.7V15H127.969V14.7ZM138.164 14.7L139.364 14.4V1.6L138.164 1.3V0.999999H143.464C145.731 0.999999 147.364 1.34667 148.364 2.04C149.364 2.72 149.864 3.67333 149.864 4.9C149.864 5.72667 149.644 6.4 149.204 6.92C148.764 7.42667 148.197 7.80667 147.504 8.06C146.771 8.34 145.991 8.48667 145.164 8.5V8.6C145.657 8.62667 146.091 8.7 146.464 8.82C147.397 9.11333 148.031 9.64 148.364 10.4L150.164 14.4L151.164 14.7V15H148.364C147.271 15 146.471 14.4333 145.964 13.3L143.964 8.8H142.664V14.4L144.064 14.7V15H138.164V14.7ZM143.464 8.3C144.397 8.3 145.131 8.00667 145.664 7.42C146.197 6.83333 146.464 5.99333 146.464 4.9C146.464 3.80667 146.197 2.96667 145.664 2.38C145.131 1.79333 144.397 1.5 143.464 1.5H142.664V8.3H143.464ZM158.373 15.3C157.066 15.3 155.919 15.02 154.933 14.46C153.959 13.8867 153.206 13.0533 152.673 11.96C152.139 10.8667 151.873 9.54667 151.873 8C151.873 6.45333 152.139 5.13333 152.673 4.04C153.206 2.94667 153.959 2.12 154.933 1.56C155.919 0.986666 157.066 0.699999 158.373 0.699999C159.679 0.699999 160.819 0.986666 161.793 1.56C162.779 2.12 163.539 2.94667 164.073 4.04C164.606 5.13333 164.873 6.45333 164.873 8C164.873 9.54667 164.606 10.8667 164.073 11.96C163.539 13.0533 162.779 13.8867 161.793 14.46C160.819 15.02 159.679 15.3 158.373 15.3ZM158.373 14.9C158.893 14.9 159.373 14.68 159.813 14.24C160.266 13.8 160.639 13.0667 160.933 12.04C161.226 11.0133 161.373 9.66667 161.373 8C161.373 6.33333 161.226 4.98667 160.933 3.96C160.639 2.93333 160.266 2.2 159.813 1.76C159.373 1.32 158.893 1.1 158.373 1.1C157.853 1.1 157.366 1.32 156.913 1.76C156.473 2.2 156.106 2.93333 155.813 3.96C155.519 4.98667 155.373 6.33333 155.373 8C155.373 9.66667 155.519 11.0133 155.813 12.04C156.106 13.0667 156.473 13.8 156.913 14.24C157.366 14.68 157.853 14.9 158.373 14.9ZM166.777 14.7L167.977 14.4V1.6L166.777 1.3V0.999999H172.477V1.3L171.277 1.6V14.5H175.577C175.577 13.66 175.791 12.88 176.217 12.16C176.404 11.8533 176.624 11.6 176.877 11.4H177.477V15H166.777V14.7Z" fill="white"/>
</svg>
